<?xml version="1.0" encoding="UTF-8" standalone="no"?>
<!-- Created with Inkscape (http://www.inkscape.org/) -->

<svg
   width="210mm"
   height="297mm"
   viewBox="0 0 210 297"
   version="1.1"
   id="svg1"
   inkscape:version="1.3 (0e150ed6c4, 2023-07-21)"
   sodipodi:docname="ksywaMEXICO.svg"
   inkscape:export-filename="ksywaMEXICO.png"
   inkscape:export-xdpi="500"
   inkscape:export-ydpi="500"
   xmlns:inkscape="http://www.inkscape.org/namespaces/inkscape"
   xmlns:sodipodi="http://sodipodi.sourceforge.net/DTD/sodipodi-0.dtd"
   xmlns="http://www.w3.org/2000/svg"
   xmlns:svg="http://www.w3.org/2000/svg">
  <sodipodi:namedview
     id="namedview1"
     pagecolor="#ffffff"
     bordercolor="#666666"
     borderopacity="1.0"
     inkscape:showpageshadow="2"
     inkscape:pageopacity="0.0"
     inkscape:pagecheckerboard="0"
     inkscape:deskcolor="#d1d1d1"
     inkscape:document-units="mm"
     showguides="true"
     inkscape:zoom="0.84531571"
     inkscape:cx="454.26814"
     inkscape:cy="323.54775"
     inkscape:window-width="1598"
     inkscape:window-height="1251"
     inkscape:window-x="0"
     inkscape:window-y="55"
     inkscape:window-maximized="0"
     inkscape:current-layer="layer1"
     inkscape:export-bgcolor="#ffffffff">
    <sodipodi:guide
       position="108.51122,202.35308"
       orientation="0,-1"
       id="guide1"
       inkscape:locked="false" />
    <sodipodi:guide
       position="124.92015,219.09704"
       orientation="0,-1"
       id="guide2"
       inkscape:locked="false" />
    <sodipodi:guide
       position="113.90357,164.80104"
       orientation="0,-1"
       id="guide8"
       inkscape:locked="false" />
    <sodipodi:guide
       position="142.37159,181.34085"
       orientation="0,-1"
       id="guide17"
       inkscape:locked="false" />
    <sodipodi:guide
       position="126.32414,109.9822"
       orientation="0,-1"
       id="guide3"
       inkscape:locked="false" />
    <sodipodi:guide
       position="142.87695,126.82542"
       orientation="0,-1"
       id="guide15"
       inkscape:locked="false" />
  </sodipodi:namedview>
  <defs
     id="defs1">
    <linearGradient
       id="swatch303"
       inkscape:swatch="solid">
      <stop
         style="stop-color:#2ed4ff;stop-opacity:1;"
         offset="0"
         id="stop303" />
    </linearGradient>
  </defs>
  <g
     inkscape:label="Layer 1"
     inkscape:groupmode="layer"
     id="layer1">
    <g
       id="g1"
       transform="matrix(1.6199019,0,0,1.6199019,-66.813776,-81.691765)">
      <path
         style="display:inline;fill:#000000;fill-opacity:1;stroke:#ae1689;stroke-width:0.643;stroke-linecap:butt;stroke-linejoin:miter;stroke-dasharray:none;stroke-opacity:1"
         d="m 147.8897,125.16319 c -4.61513,2.68181 -14.11473,8.43123 -13.70163,8.76883 1.28697,1.05178 5.38758,0.395 8.19158,-0.18959 1.63107,-0.01 1.90708,0.28636 2.64482,0.42659 0.59997,0.1229 1.49383,0.39465 1.68974,1.18499 0.22253,1.77325 -1.29427,1.94436 -2.05707,2.13296 -5.77465,-0.0926 -12.1833,0.99538 -18.25657,1.27978 -3.09954,-1.19455 -3.10397,-1.51313 -3.45296,-2.60696 -0.23791,-0.51236 1.33464,-0.17524 2.05707,-0.23699 L 145.502,123.21982 c 1.30527,-0.49358 3.02875,1.04663 2.3877,1.94336 z"
         id="path12"
         sodipodi:nodetypes="cscccccccccc" />
      <path
         style="display:inline;fill:#000000;fill-opacity:1;stroke:#ae1689;stroke-width:0.643;stroke-linecap:butt;stroke-linejoin:miter;stroke-dasharray:none;stroke-opacity:1"
         d="m 74.819901,123.66203 c -2.98438,4.29076 -5.600099,7.47551 -8.953149,12.87228 0.79943,0.98313 1.23664,1.62695 2.53391,2.36499 2.598919,-0.29202 9.887884,-2.02714 14.831834,-3.0407 0.11518,-0.60254 2.0254,-3.24619 1.31763,-3.14205 -3.81253,0.56098 -7.31152,1.67067 -11.453285,1.65549 0.21801,-0.67122 -0.17122,-0.77568 1.28385,-2.60149 3.009205,-0.26109 5.871515,-0.45541 9.831585,-1.1487 0.50886,-0.66741 1.03044,-1.28393 1.45278,-2.29742 -3.10827,-0.31533 -9.06781,0.45313 -9.22345,0.0676 0.13052,-0.80882 0.32185,-1.29334 0.81085,-1.3852 0.75427,-0.33548 3.50931,0.28044 4.32454,0.0676 0.2084,-0.69198 0.4135,-1.25143 0.7095,-0.97978 l 6.14897,0.37164 c 0.40494,-0.61248 0.82939,-1.04942 1.1487,-2.43256 z"
         id="path13"
         sodipodi:nodetypes="ccccsccccccccccc" />
      <path
         style="display:inline;fill:#000000;fill-opacity:1;stroke:#ae1689;stroke-width:0.643;stroke-linecap:butt;stroke-linejoin:miter;stroke-dasharray:none;stroke-opacity:1"
         d="m 61.72692,123.51032 c -2.04286,1.60283 -3.34816,8.74252 -3.98669,7.09495 -0.27456,-1.17844 -0.76562,-2.33481 -0.64341,-3.47524 0.12097,-1.12887 -0.29912,-2.03267 -0.30259,-3.11293 -0.69956,-0.0346 -0.43063,0.28287 -1.95955,-0.10135 -0.40259,-0.38722 0.1011,-0.88882 0.23649,-1.04736 l -0.60814,-0.30407 c -0.32704,-0.16352 -5.96631,11.68354 -8.58152,17.43332 l -0.91221,0.0676 -0.81085,1.1825 c 0.12495,0.86686 0.33359,1.7098 1.08114,2.39877 l 2.90555,-5.33811 c 0.5229,-0.35553 1.12836,-0.62849 1.48656,-1.14871 1.7118,-3.14205 4.94943,-9.9461 5.1354,-9.42616 0.70989,2.2717 0.59163,4.37159 0.946,7.19632 0.4493,0.62911 1.03268,1.27497 2.19605,1.99334 1.75685,-2.87177 4.13467,-9.99796 4.66241,-9.22344 0.0225,3.77271 -1.05565,11.14093 -10e-6,11.31814 0.42663,0.10004 0.56393,0.0797 0.81085,0 0.38641,-0.33557 0.87967,-1.6329 1.35143,-2.73662 -0.1721,-3.14249 0.50133,-6.91913 1.013564,-10.57487 -0.603414,-0.53802 -0.944404,-0.72614 -1.283854,-0.91221 l -0.2365,-1.04735 c -0.99639,-0.21469 -2.02772,-0.45849 -2.50012,-0.23652 z"
         id="path14"
         sodipodi:nodetypes="ccscccsccccccccccccccccc" />
      <path
         style="fill:#000000;fill-opacity:1;stroke:#ae1689;stroke-width:0.643;stroke-linecap:butt;stroke-linejoin:miter;stroke-dasharray:none;stroke-opacity:1"
         d="m 122.64824,127.21881 2.1679,-3.1533 -0.82775,-0.35473 -3.82338,0.23648 -0.82774,-0.59124 -0.59124,-0.39416 -0.67008,0.43358 -0.82775,-0.59124 h -0.98539 l -0.27592,0.63066 -10.48473,-0.0394 1.37957,0.98541 0.946,0.0789 0.23649,0.5124 3.15331,-0.31532 1.73431,1.61606 3.1533,0.19709 c 0,0 -0.9854,10.36647 -1.37957,10.36647 -0.39416,0 -3.23214,0.0789 -3.23214,0.0789 l -1.10365,-0.51241 -2.36497,0.15767 -0.0789,1.26132 0.0394,2.12848 c 0,0 13.48585,0.61189 13.83512,0.23649 0.30252,-0.32514 0.67008,-1.37956 0.67008,-1.37956 0.12744,-0.26238 -1.97082,-0.0394 -1.97082,-0.0394 l 0.39416,-1.85256 c -1.37907,-0.0828 -3.02471,0.38061 -3.204,0.0902 -0.42165,-0.41554 -0.22865,-1.08512 0.12955,-2.65233 l 1.14307,-6.3066 0.67007,-1.10367 c 0,0 -0.0789,-0.0789 0.51242,-0.0789 0.59124,0 2.48322,0.35475 2.48322,0.35475 z"
         id="path3-2"
         sodipodi:nodetypes="cccccccccccccccccscccccssccccccscc" />
      <path
         id="path5"
         style="fill:#000000;fill-opacity:1;stroke:#ae1689;stroke-width:0.643;stroke-linecap:butt;stroke-linejoin:miter;stroke-dasharray:none;stroke-opacity:1"
         d="m 167.66075,122.33803 c -0.072,8.4e-4 -0.14887,0.0124 -0.22893,0.0366 l -3.22682,0.1345 -4.57128,0.35853 c -2.19223,0.68835 -4.32184,1.14712 -6.85686,3.09232 -1.68365,1.20957 -2.73275,2.96307 -3.58535,4.88498 -0.52374,1.35014 -0.56097,2.89483 -0.49303,4.48162 1.36223,1.66307 3.29691,3.09714 5.24352,4.52645 2.5926,0.12224 3.72693,-0.24166 5.33319,-0.4482 5.00036,-2.0095 5.34292,-2.04027 8.78403,-6.63283 l -0.6274,-3.80938 c -0.43515,-2.22304 -2.13465,-4.76718 -2.33054,-4.57128 -0.14418,-0.80147 0.5409,-0.77379 0.94123,-1.03077 l 1.74784,-0.0448 v 1.4e-4 c 0.63431,-0.45741 0.37434,-0.98332 -0.1296,-0.97787 z m -6.80277,3.65901 c 0.0293,-5e-5 0.0545,0.003 0.0754,0.008 1.07805,0.38774 2.0574,1.2031 2.77861,3.13715 l 0.22417,2.37524 c -0.38451,0.91126 -0.23435,1.82252 -1.25494,2.73378 -1.33238,0.86041 -2.46943,1.44388 -4.07825,2.10637 l -3.76455,0.0897 c -0.83654,-0.60489 -1.50612,-0.45824 -2.55457,-2.01671 l 0.0448,-1.3893 c -0.19039,-0.26655 1.72904,-3.52019 2.28558,-4.07838 0.48587,-0.48733 5.3348,-2.964 6.24374,-2.96562 z" />
      <path
         style="display:inline;fill:#000000;fill-opacity:1;stroke:#ae1689;stroke-width:0.643;stroke-linecap:butt;stroke-linejoin:miter;stroke-dasharray:none;stroke-opacity:1"
         d="m 102.39224,123.79778 c -0.13048,0.15821 -0.21768,0.61925 -0.24109,1.52687 l -3.495724,4.66094 c -1.59414,-1.79245 -2.75682,-3.34957 -3.17427,-4.50022 l -0.0804,-0.8438 c -1.26037,-0.95314 -0.79253,-0.42276 -2.57155,-0.92415 -1.69827,0.27117 -1.70396,0.67255 -2.08941,1.0447 1.88068,3.26688 4.11183,4.74131 6.14765,7.23251 l -8.67902,11.21041 c 2.15755,-1.54641 5.05315,-4.11825 8.23703,-4.29933 0.97795,-2.66624 1.57343,-3.70702 2.12957,-4.5806 1.888604,1.91669 3.890164,5.30189 5.585114,4.70114 -0.17964,-0.63892 0.0823,-2.53127 -0.4018,-3.5359 -1.97966,-1.28579 -2.4535,-2.57156 -3.65644,-3.85734 2.37208,-2.10279 3.37517,-4.20557 5.06276,-6.30836 -0.51528,-0.66228 -1.40034,-1.1859 -2.77243,-1.52687 z"
         id="path11"
         sodipodi:nodetypes="cccccccccccccccc" />
    </g>
  </g>
</svg>
